<svg width="23" height="22" viewBox="0 0 23 22" fill="none" xmlns="http://www.w3.org/2000/svg">
<path d="M8.40794 3.25546L9.67902 1.42882C9.86597 1.16017 10.1725 1 10.4998 1H12.3049C12.631 1 12.9366 1.15898 13.1238 1.426L14.3816 3.22032M8.40794 3.25546C8.06109 3.75031 7.48454 3.99279 6.8726 3.94956M8.40794 3.25546C8.0594 3.74912 7.48454 3.9948 6.8726 3.94956M6.8726 3.94956L4.6235 3.80836C4.30265 3.78821 3.99169 3.92355 3.78777 4.17208L2.64726 5.56208C2.43106 5.82557 2.36396 6.18104 2.46922 6.50522L3.12507 8.52504M3.12507 8.52504C3.21399 8.81338 3.22537 9.12227 3.16173 9.41401M3.12507 8.52504C3.21526 8.81286 3.22622 9.12114 3.16131 9.41699M3.16173 9.41401C3.09725 9.70229 2.95902 9.97449 2.75377 10.1949M3.16173 9.41401L3.16131 9.41699M2.75377 10.1949L1.26766 11.7933C1.03927 12.0389 0.949236 12.3827 1.02792 12.7088L1.43048 14.377C1.5089 14.702 1.74455 14.9663 2.05845 15.0813L4.1003 15.8297C4.3852 15.9399 4.63133 16.1191 4.81761 16.3449M2.75377 10.1949C2.96028 9.9763 3.09725 9.70497 3.16131 9.41699M4.81761 16.3449C5.00263 16.5713 5.12864 16.8445 5.17753 17.1404M4.81761 16.3449C5.00431 16.5713 5.13075 16.8438 5.17753 17.1404M4.81761 16.3449L4.81466 16.3416C4.80244 16.3268 4.78937 16.3114 4.77673 16.297M5.17753 17.1404L5.52519 19.2759C5.57846 19.6031 5.79041 19.8826 6.09109 20.0222L7.71902 20.7781C8.01009 20.9132 8.34832 20.9005 8.62838 20.7438L10.5422 19.6731M10.5422 19.6731C10.8073 19.5242 11.1031 19.4495 11.399 19.4491M10.5422 19.6731C10.6471 19.6134 10.7571 19.5657 10.8701 19.5299C11.0416 19.4756 11.2203 19.4488 11.399 19.4491M11.399 19.4491C11.5528 19.4495 11.7066 19.4698 11.8567 19.51C11.9962 19.5474 12.1319 19.6018 12.2604 19.6731M11.399 19.4491C11.6961 19.4487 11.9936 19.5234 12.2604 19.6731M12.2604 19.6731L14.2639 20.7577C14.5452 20.9099 14.8823 20.9185 15.1709 20.7806L16.7911 20.0068C17.0907 19.8637 17.2997 19.5812 17.349 19.2529L17.6604 17.178M17.6604 17.178C17.7072 16.8805 17.8316 16.6052 18.0162 16.3768M17.6604 17.178C17.7055 16.8798 17.8307 16.6049 18.0162 16.3768M18.0162 16.3768C18.1995 16.1508 18.4427 15.9707 18.7259 15.8593M18.0162 16.3768C18.1991 16.1499 18.4414 15.9693 18.7259 15.8593M18.7259 15.8593L20.7889 15.0508C21.0968 14.9301 21.3252 14.6649 21.3989 14.3425L21.7845 12.6539C21.858 12.3323 21.7681 11.9952 21.5443 11.7528L20.0492 10.134M20.0492 10.134C19.8402 9.91277 19.6944 9.64855 19.6236 9.36773M20.0492 10.134C19.951 10.0307 19.8667 9.91771 19.798 9.79797C19.7197 9.66199 19.6611 9.51726 19.6236 9.36773M19.6236 9.36773C19.554 9.08893 19.5582 8.79349 19.6463 8.50752L20.2929 6.43487C20.3933 6.11307 20.3248 5.76235 20.1108 5.50196L18.9983 4.14894C18.7921 3.89805 18.4768 3.76298 18.1528 3.7867L15.9296 3.94956M15.9296 3.94956C15.6253 3.97104 15.326 3.91308 15.0597 3.78839M15.9296 3.94956C15.6248 3.97228 15.326 3.91385 15.0597 3.78839M15.0597 3.78839C14.7916 3.6621 14.5565 3.4679 14.3816 3.22032M15.0597 3.78839C14.7912 3.66256 14.5556 3.46888 14.3816 3.22032M3.16131 9.41699L3.16215 9.41261M14.7878 11.0106C14.7878 12.8756 13.242 14.3874 11.3353 14.3874C9.42869 14.3874 7.88281 12.8756 7.88281 11.0106C7.88281 9.14566 9.42869 7.63386 11.3353 7.63386C13.242 7.63386 14.7878 9.14566 14.7878 11.0106Z" stroke="#1143C0" stroke-width="2"/>
</svg>
