<svg width="24" height="24" viewBox="0 0 24 24" fill="none" xmlns="http://www.w3.org/2000/svg">
<path d="M7.35294 16.6V18.7C7.35294 19.257 7.57605 19.7911 7.97319 20.1849C8.37032 20.5788 8.90895 20.8 9.47059 20.8H16.8824C17.444 20.8 17.9826 20.5788 18.3798 20.1849C18.7769 19.7911 19 19.257 19 18.7L19 6.1C19 5.54305 18.7769 5.0089 18.3798 4.61508C17.9826 4.22125 17.444 4 16.8824 4L9.47059 4C8.90895 4 8.37032 4.22125 7.97319 4.61508C7.57605 5.0089 7.35294 5.54305 7.35294 6.1V8.2M13.7059 12.4L1 12.4M1 12.4L4.17647 15.55M1 12.4L4.17647 9.25" stroke="#1143C0" stroke-width="2" stroke-linecap="round" stroke-linejoin="round"/>
</svg>
