<svg width="17" height="17" viewBox="0 0 17 17" fill="none" xmlns="http://www.w3.org/2000/svg">
<path d="M3.10903 12.5932C3.10899 12.9521 3.39998 13.2432 3.75896 13.2432C4.11795 13.2433 4.40899 12.9523 4.40903 12.5933L3.10903 12.5932ZM3.75921 10.9366L4.40921 10.9367L3.75921 10.9366ZM8.32349 9.93031C8.68248 9.93031 8.9735 9.6393 8.9735 9.28031C8.9735 8.92133 8.68248 8.63031 8.32349 8.63031V9.93031ZM12.351 10.4825C12.7099 10.4825 13.001 10.1915 13.001 9.83247C13.001 9.47348 12.7099 9.18247 12.351 9.18247V10.4825ZM9.93448 9.18247C9.5755 9.18247 9.28448 9.47348 9.28448 9.83247C9.28448 10.1915 9.5755 10.4825 9.93448 10.4825V9.18247ZM10.4927 11.0747C10.4927 11.4337 10.7837 11.7247 11.1427 11.7247C11.5017 11.7247 11.7927 11.4337 11.7927 11.0747H10.4927ZM11.7927 8.59006C11.7927 8.23107 11.5017 7.94006 11.1427 7.94006C10.7837 7.94006 10.4927 8.23107 10.4927 8.59006H11.7927ZM8.47899 5.41525C8.47899 5.98827 8.0318 6.4217 7.518 6.4217V7.7217C8.78365 7.7217 9.77899 6.67189 9.77899 5.41525H8.47899ZM7.518 6.4217C7.0042 6.4217 6.55701 5.98827 6.55701 5.41525H5.25702C5.25702 6.67189 6.25236 7.7217 7.518 7.7217V6.4217ZM6.55701 5.41525C6.55701 4.84222 7.0042 4.40879 7.518 4.40879V3.10879C6.25236 3.10879 5.25702 4.1586 5.25702 5.41525H6.55701ZM7.518 4.40879C8.0318 4.40879 8.47899 4.84222 8.47899 5.41525H9.77899C9.77899 4.1586 8.78365 3.10879 7.518 3.10879V4.40879ZM4.40903 12.5933L4.40921 10.9367L3.10921 10.9365L3.10903 12.5932L4.40903 12.5933ZM5.3702 8.63031C4.10466 8.63031 3.10935 9.67996 3.10921 10.9365L4.40921 10.9367C4.40928 10.3637 4.85644 9.93031 5.3702 9.93031V8.63031ZM5.3702 9.93031H8.32349V8.63031H5.3702V9.93031ZM12.351 9.18247H11.1427V10.4825H12.351V9.18247ZM11.1427 9.18247H9.93448V10.4825H11.1427V9.18247ZM11.7927 11.0747V9.83247H10.4927V11.0747H11.7927ZM11.7927 9.83247V8.59006H10.4927V9.83247H11.7927Z" fill="#DADCE0"/>
<rect x="0.55" y="0.55" width="15.0099" height="15.0099" rx="2.45" stroke="#DADCE0" stroke-width="1.1"/>
</svg>
