<svg width="43" height="42" viewBox="0 0 43 42" fill="none" xmlns="http://www.w3.org/2000/svg">
<rect x="1.79102" y="1" width="40" height="40" rx="20" stroke="url(#paint0_linear_220_5620)" stroke-width="2"/>
<path d="M13.791 29L13.7914 25.9997C13.7915 24.3429 15.1347 23 16.7915 23H21.7914M26.4337 26.25L24.2907 24.25M24.2907 24.25L26.4337 22.25M24.2907 24.25H29.791M23.7915 16C23.7915 17.6569 22.4483 19 20.7914 19C19.1344 19 17.7912 17.6569 17.7912 16C17.7912 14.3431 19.1344 13 20.7914 13C22.4483 13 23.7915 14.3431 23.7915 16Z" stroke="url(#paint1_linear_220_5620)" stroke-width="2" stroke-linecap="round" stroke-linejoin="round"/>
<defs>
<linearGradient id="paint0_linear_220_5620" x1="-20.709" y1="21" x2="64.791" y2="21" gradientUnits="userSpaceOnUse">
<stop stop-color="#0D9739"/>
<stop offset="1" stop-color="#1143C0"/>
</linearGradient>
<linearGradient id="paint1_linear_220_5620" x1="5.60054" y1="21" x2="38.172" y2="21" gradientUnits="userSpaceOnUse">
<stop stop-color="#0D9739"/>
<stop offset="1" stop-color="#1143C0"/>
</linearGradient>
</defs>
</svg>
