<svg width="242" height="58" viewBox="0 0 242 58" fill="none" xmlns="http://www.w3.org/2000/svg">
<g clip-path="url(#clip0_124_310)">
<path d="M65.3509 36.0945C64.1581 36.6798 62.6018 36.9724 60.6821 36.9724C58.2118 36.9724 56.2496 36.2355 54.7957 34.7617C53.3488 33.2809 52.6254 31.31 52.6254 28.8489C52.6254 26.2609 53.4335 24.1455 55.0498 22.5025C56.6731 20.8523 58.7658 20.0273 61.3279 20.0273C62.93 20.0273 64.271 20.2354 65.3509 20.6514V24.0256C64.2428 23.3769 62.9865 23.0525 61.582 23.0525C59.9798 23.0525 58.6987 23.5637 57.7388 24.5862C56.779 25.6087 56.2991 26.945 56.2991 28.5951C56.2991 30.2028 56.7543 31.4968 57.6648 32.477C58.5752 33.4572 59.8069 33.9473 61.3596 33.9473C62.8206 33.9473 64.1511 33.5947 65.3509 32.8895V36.0945ZM78.4367 24.9882L73.6093 37.734C72.4867 40.6957 70.8074 42.1766 68.5697 42.1766C67.6875 42.1766 67.0029 42.0849 66.5159 41.9015V39.162C66.9746 39.4229 67.4793 39.5534 68.0298 39.5534C68.9615 39.5534 69.6178 39.102 69.9989 38.1994L70.6451 36.6657L65.9124 24.9882H69.7025L71.9894 32.3183C72.1307 32.7626 72.2328 33.2597 72.2965 33.8098H72.3601C72.4091 33.436 72.5259 32.9459 72.7091 32.3395L75.0487 24.9882H78.4367ZM82.9263 35.28V42.0708H79.5068V24.9882H82.9263V26.7757H82.9682C83.8649 25.3936 85.1316 24.7026 86.7689 24.7026C88.2587 24.7026 89.4232 25.2244 90.2625 26.268C91.1025 27.3046 91.5229 28.7185 91.5229 30.5096C91.5229 32.4629 91.0354 34.0283 90.0618 35.206C89.0875 36.3836 87.8103 36.9724 86.229 36.9724C84.7965 36.9724 83.7096 36.4083 82.9682 35.28H82.9263ZM82.8731 31.5144C82.8731 32.3465 83.099 33.027 83.5509 33.5559C84.0027 34.0848 84.5881 34.3492 85.3078 34.3492C86.1618 34.3492 86.8256 34.0178 87.2984 33.3549C87.7782 32.6921 88.0181 31.7542 88.0181 30.5413C88.0181 28.3977 87.1823 27.3258 85.5093 27.3258C84.7329 27.3258 84.0978 27.6219 83.6033 28.2143C83.1165 28.8066 82.8731 29.5682 82.8731 30.499V31.5144ZM103.486 23.2111H97.3463V36.6868H93.852V20.3023H103.486V23.2111ZM117.8 20.3023L112.676 31.5568C111.632 33.8556 110.654 35.3329 109.744 35.9887C108.833 36.6446 107.845 36.9724 106.779 36.9724C105.918 36.9724 105.213 36.8455 104.662 36.5917V33.3866C105.283 33.7886 105.925 33.9896 106.588 33.9896C107.549 33.9896 108.399 33.2068 109.14 31.6414L103.741 20.3023H107.711L110.57 27.1142C110.711 27.4457 110.837 27.8794 110.951 28.4153H110.972C111.056 28.0345 111.191 27.6114 111.374 27.146L114.116 20.3023H117.8Z" fill="black"/>
<path d="M46.1619 34.5905C46.1619 39.1514 44.8082 43.6099 42.272 47.4022C39.7359 51.1944 36.1311 54.1501 31.9137 55.8954C27.6961 57.6408 23.0553 58.0975 18.5781 57.2077C14.1008 56.3179 9.98818 54.1216 6.76026 50.8966C3.53233 47.6715 1.33409 43.5626 0.443504 39.0894C-0.447079 34.6162 0.0100006 29.9795 1.75694 25.7658C3.50388 21.552 6.46222 17.9505 10.2579 15.4166C14.0535 12.8828 18.5159 11.5303 23.0809 11.5303V23.0604C20.7984 23.0604 18.5672 23.7367 16.6694 25.0036C14.7716 26.2705 13.2924 28.0713 12.4189 30.1782C11.5454 32.285 11.3169 34.6033 11.7622 36.8399C12.2075 39.0766 13.3067 41.131 14.9206 42.7436C16.5346 44.3561 18.5909 45.4542 20.8295 45.8991C23.0681 46.344 25.3885 46.1157 27.4973 45.243C29.6061 44.3703 31.4084 42.8925 32.6764 40.9964C33.9446 39.1002 34.6214 36.871 34.6214 34.5905H46.1619Z" fill="#1143C0"/>
<path d="M23.0809 0C26.1119 -1.32372e-07 29.1133 0.59647 31.9137 1.75535C34.7139 2.91424 37.2584 4.61284 39.4016 6.75419C41.5449 8.89552 43.245 11.4377 44.4049 14.2354C45.5648 17.0333 46.1619 20.0319 46.1619 23.0602H34.6214C34.6214 21.5461 34.3229 20.0468 33.7429 18.6478C33.163 17.249 32.3129 15.9779 31.2413 14.9072C30.1696 13.8366 28.8974 12.9872 27.4973 12.4078C26.0971 11.8284 24.5964 11.5301 23.0809 11.5301V0Z" fill="#0D9739"/>
<path d="M142.478 37.0364H139.577L133.415 29.5899C133.204 29.3289 133.059 29.1244 132.981 28.9763H132.929V37.0364H130.811V20.6519H132.929V28.3628H132.981C133.101 28.1724 133.246 27.9715 133.415 27.7599L139.365 20.6519H141.981L135.099 28.5109L142.478 37.0364ZM144.151 26.1521C145.315 25.4258 146.66 25.0627 148.184 25.0627C151.008 25.0627 152.419 26.5435 152.419 29.5052V37.0364H150.365V35.2276H150.313C149.501 36.6168 148.305 37.3114 146.723 37.3114C145.587 37.3114 144.684 37.0046 144.013 36.3912C143.343 35.7776 143.007 34.9491 143.007 33.9054C143.007 31.7194 144.303 30.4466 146.893 30.087L150.365 29.6004C150.365 27.6894 149.575 26.7339 147.994 26.7339C146.59 26.7339 145.308 27.2063 144.151 28.1513V26.1521ZM147.624 31.5361C146.664 31.663 146 31.9027 145.633 32.2553C145.273 32.608 145.093 33.1015 145.093 33.7362C145.093 34.2932 145.291 34.7481 145.686 35.1007C146.081 35.4532 146.604 35.6296 147.253 35.6296C148.156 35.6296 148.901 35.3122 149.487 34.6776C150.073 34.0429 150.365 33.2461 150.365 32.2871V31.1659L147.624 31.5361ZM164.256 37.0364H162.192V27.0301H159.556C159.238 30.7181 158.698 33.3342 157.936 34.8786C157.18 36.4229 156.136 37.1951 154.802 37.1951C154.393 37.1951 154.043 37.1386 153.754 37.0258V35.3229C154.015 35.4568 154.304 35.5238 154.622 35.5238C156.28 35.5238 157.353 32.1284 157.841 25.3377H164.256V37.0364ZM177.066 31.7159H168.873C168.908 32.9641 169.25 33.9302 169.899 34.6141C170.548 35.2911 171.456 35.6296 172.62 35.6296C173.933 35.6296 175.137 35.21 176.231 34.3708V36.2219C175.2 36.9482 173.834 37.3114 172.133 37.3114C170.439 37.3114 169.116 36.7754 168.163 35.7036C167.217 34.6317 166.744 33.1439 166.744 31.2399C166.744 29.4488 167.263 27.9715 168.301 26.808C169.345 25.6445 170.64 25.0627 172.186 25.0627C173.718 25.0627 174.914 25.5563 175.775 26.5435C176.636 27.5237 177.066 28.8988 177.066 30.6687V31.7159ZM174.992 30.0553C174.985 28.9975 174.734 28.1795 174.24 27.6012C173.746 27.0231 173.051 26.7339 172.154 26.7339C171.328 26.7339 170.612 27.0407 170.005 27.6541C169.406 28.2677 169.028 29.068 168.873 30.0553H174.992ZM189.295 37.0364H187.22V31.7794H181.461V37.0364H179.396V25.3377H181.461V30.087H187.22V25.3377H189.295V37.0364ZM203.037 41.2991H201.301V37.0364H192.683V41.2991H190.926V35.344H191.974C193.929 32.5022 194.924 29.1667 194.96 25.3377H201.291V35.344H203.037V41.2991ZM199.216 35.344V27.0301H196.706C196.509 30.1046 195.651 32.8759 194.134 35.344H199.216ZM205.42 26.1521C206.584 25.4258 207.929 25.0627 209.454 25.0627C212.277 25.0627 213.688 26.5435 213.688 29.5052V37.0364H211.635V35.2276H211.581C210.77 36.6168 209.573 37.3114 207.993 37.3114C206.856 37.3114 205.952 37.0046 205.282 36.3912C204.612 35.7776 204.277 34.9491 204.277 33.9054C204.277 31.7194 205.571 30.4466 208.162 30.087L211.635 29.6004C211.635 27.6894 210.844 26.7339 209.263 26.7339C207.858 26.7339 206.577 27.2063 205.42 28.1513V26.1521ZM208.892 31.5361C207.933 31.663 207.269 31.9027 206.902 32.2553C206.542 32.608 206.362 33.1015 206.362 33.7362C206.362 34.2932 206.56 34.7481 206.955 35.1007C207.35 35.4532 207.872 35.6296 208.521 35.6296C209.425 35.6296 210.17 35.3122 210.755 34.6776C211.342 34.0429 211.635 33.2461 211.635 32.2871V31.1659L208.892 31.5361ZM218.77 35.3863V42.4203H216.696V25.3377H218.77V27.358H218.813C219.73 25.8278 221.071 25.0627 222.836 25.0627C224.332 25.0627 225.503 25.588 226.35 26.6387C227.204 27.6824 227.632 29.0856 227.632 30.8485C227.632 32.7948 227.148 34.3603 226.181 35.5449C225.222 36.7225 223.926 37.3114 222.296 37.3114C220.793 37.3114 219.632 36.6697 218.813 35.3863H218.77ZM218.76 32.2131C218.76 33.165 219.067 33.9689 219.681 34.6247C220.295 35.2734 221.064 35.5978 221.989 35.5978C223.09 35.5978 223.951 35.1747 224.572 34.3285C225.193 33.4824 225.503 32.3117 225.503 30.8168C225.503 29.5546 225.215 28.5673 224.635 27.8551C224.057 27.1358 223.267 26.7762 222.264 26.7762C221.24 26.7762 220.4 27.1394 219.744 27.8657C219.088 28.5921 218.76 29.5229 218.76 30.6582V32.2131ZM230.109 37.0364V25.3377H232.174V29.7908H235.329C236.528 29.7908 237.485 30.1046 238.198 30.7322C238.918 31.3527 239.278 32.2236 239.278 33.3448C239.278 34.4872 238.918 35.3898 238.198 36.0527C237.485 36.7085 236.582 37.0364 235.488 37.0364H230.109ZM232.174 31.4726V35.3651H234.874C236.391 35.3651 237.15 34.6952 237.15 33.3554C237.15 32.1002 236.388 31.4726 234.863 31.4726H232.174Z" fill="#484848"/>
</g>
<defs>
<clipPath id="clip0_124_310">
<rect width="242" height="58" fill="white"/>
</clipPath>
</defs>
</svg>
