<svg width="962" height="610" viewBox="0 0 962 610" fill="none" xmlns="http://www.w3.org/2000/svg">
<g filter="url(#filter0_i_124_103)">
<rect width="962" height="610" rx="50" fill="#8F9DFB"/>
</g>
<path fill-rule="evenodd" clip-rule="evenodd" d="M183.866 244.404L217.21 283.249L198.304 299.749L170.804 263.999C170.804 263.999 166.679 254.372 183.866 244.404Z" fill="#C65A45"/>
<path fill-rule="evenodd" clip-rule="evenodd" d="M156.325 228.082L166.296 224.344C166.296 224.344 183.124 235.872 193.719 248.96C193.719 248.96 183.747 264.54 177.515 271.395C171.283 278.251 158.507 265.475 156.325 228.082Z" fill="#D2774D"/>
<path fill-rule="evenodd" clip-rule="evenodd" d="M380.905 156.859L388.5 151.587L394.083 184.932L364.576 179.776L380.905 156.859Z" fill="#D2774D"/>
<path fill-rule="evenodd" clip-rule="evenodd" d="M190.211 160.866L172.421 525.05H439.283L460.291 166.551L190.211 160.866Z" fill="white"/>
<path fill-rule="evenodd" clip-rule="evenodd" d="M392.548 165.125L272.363 162.595L270.327 184.929L386.014 194.706L392.548 165.125Z" fill="#DAE0FD"/>
<path fill-rule="evenodd" clip-rule="evenodd" d="M183.273 302.877L172.421 525.051H246.922L183.273 302.877Z" fill="#DAE0FD"/>
<path fill-rule="evenodd" clip-rule="evenodd" d="M273.192 148.262L306.627 149.402C309.75 140.555 311.566 125.015 336.356 125.884C361.145 126.753 359.308 141.754 358.956 150.57L388.5 151.586L380.327 188.939L270.327 184.928C270.327 184.928 270.798 162.563 273.192 148.262ZM333.999 132.367C326.365 132.367 320.177 138.01 320.177 144.971C320.177 151.932 326.366 157.575 333.999 157.575C341.633 157.575 347.82 151.932 347.82 144.971C347.82 138.01 341.633 132.367 333.999 132.367Z" fill="#ECB55A"/>
<path fill-rule="evenodd" clip-rule="evenodd" d="M310.145 139.33C313.425 132.113 319.714 125.301 336.356 125.884C347.758 126.284 353.526 129.675 356.397 134.077C356.539 136.804 354.984 139.382 349.925 140.911C349.021 141.185 348.153 141.411 347.319 141.597C345.701 136.274 340.351 132.366 333.999 132.366C327.166 132.366 321.494 136.886 320.377 142.826C315.252 144.878 310.017 145.489 310.145 139.33Z" fill="#F3D487"/>
<path fill-rule="evenodd" clip-rule="evenodd" d="M336.015 157.442C329.778 156.112 324.644 151.129 323.9 145.185C323.03 138.225 328.513 132.582 336.147 132.582C336.295 132.582 336.443 132.584 336.591 132.588C335.752 132.443 334.884 132.367 333.999 132.367C326.365 132.367 320.177 138.01 320.177 144.971C320.177 151.932 326.366 157.575 333.999 157.575C334.684 157.575 335.357 157.53 336.015 157.442Z" fill="#D2774D"/>
<path fill-rule="evenodd" clip-rule="evenodd" d="M277.563 301.125C277.588 301.128 282.703 301.779 288.054 300.556C288.965 300.348 289.654 299.756 289.999 298.887C290.343 298.018 290.244 297.114 289.721 296.34C289.111 295.434 288.656 294.47 288.365 293.47C288.054 292.404 287.929 291.302 288.003 290.192C288.196 287.266 290.16 285.486 292.516 284.807C293.878 284.415 295.376 284.398 296.727 284.749C298.115 285.109 299.361 285.858 300.17 286.986C301.391 288.688 301.614 291.186 299.834 294.414C299.438 295.131 298.991 295.789 298.501 296.391C297.879 297.159 297.715 298.119 298.047 299.05C298.38 299.981 299.115 300.619 300.083 300.818C301.056 301.017 302.091 301.158 303.182 301.229C306.519 301.449 310.388 301.038 314.708 299.778C318.37 298.71 321.568 297.638 324.391 296.691C334.54 293.287 339.987 291.461 345.413 296.887C346.394 297.869 347.426 298.777 348.489 299.575C351.152 301.572 354.083 302.954 357.015 303.144C359.892 303.331 362.804 302.356 365.501 299.657C366.09 299.069 366.661 298.411 367.209 297.682C367.217 297.67 367.225 297.659 367.234 297.646L367.49 297.293L366.957 297.235C361.303 296.546 360.426 294.442 361.228 290.427C361.677 288.183 363.077 286.973 364.696 286.635C365.78 286.41 366.952 286.59 367.989 287.125C369.012 287.652 369.909 288.529 370.456 289.699C370.874 290.592 371.087 291.656 370.99 292.861C370.927 293.666 371.178 294.382 371.732 294.968C372.286 295.554 372.986 295.847 373.792 295.829C379.089 295.712 386.582 295.144 397.02 294.246C431.396 291.29 424.46 297.356 424.442 297.374L424.074 296.967C423.774 296.634 423.586 296.288 423.466 295.856C423.281 295.19 420.344 293.869 397.154 295.863C384.58 296.945 376.24 297.549 370.809 297.465C369.896 297.451 369.104 297.841 368.559 298.574C368.545 298.594 368.53 298.613 368.515 298.633C367.897 299.457 367.273 300.18 366.649 300.805C363.583 303.87 360.239 304.976 356.911 304.76C353.639 304.548 350.415 303.042 347.516 300.867C346.365 300.003 345.275 299.046 344.263 298.035C339.544 293.316 334.429 295.031 324.903 298.225C322.071 299.174 318.86 300.251 315.156 301.331C310.642 302.648 306.586 303.077 303.077 302.846C299.925 302.638 297.205 301.898 294.978 300.789C294.219 300.411 293.413 300.392 292.637 300.736C285.723 303.802 277.4 302.739 277.367 302.735L277.563 301.125ZM286.031 315.902C286.061 315.901 296.469 315.436 310.85 314.932L310.901 316.549C296.611 317.049 286.124 317.518 286.093 317.519L286.031 315.902ZM321.178 314.589C333.887 314.189 348.141 313.833 360.478 313.746C372.83 313.659 383.251 313.845 388.264 314.534L388.048 316.139C383.106 315.461 372.763 315.277 360.484 315.364C348.191 315.45 333.945 315.807 321.229 316.207L321.178 314.589ZM295.861 296.817C296.853 295.935 297.724 294.884 298.413 293.633C299.839 291.05 299.735 289.152 298.858 287.931C298.28 287.127 297.361 286.585 296.321 286.315C295.243 286.036 294.046 286.049 292.961 286.362C291.215 286.864 289.761 288.166 289.621 290.293C289.56 291.219 289.663 292.137 289.92 293.019C290.297 294.307 291.003 295.533 292.015 296.629C293.029 297.729 294.744 297.813 295.861 296.817ZM369.333 293.18C369.502 292.085 369.352 291.145 368.997 290.385C368.611 289.558 367.976 288.939 367.253 288.566C366.542 288.2 365.751 288.073 365.033 288.223C364.016 288.435 363.129 289.237 362.827 290.746C362.307 293.348 362.815 294.828 366.093 295.462C366.854 295.609 367.564 295.456 368.199 295.011C368.831 294.563 369.214 293.946 369.333 293.18Z" fill="#8F9DFB"/>
<path fill-rule="evenodd" clip-rule="evenodd" d="M229.298 291.395C231.897 289.925 237.532 289.324 243.099 289.361C249.362 289.404 255.637 290.272 257.488 291.634C257.752 291.828 257.991 292.092 258.203 292.417C259.642 294.626 260.24 300.611 259.926 306.741C259.611 312.856 258.397 319.2 256.212 322.17C255.794 322.738 255.333 323.197 254.829 323.526C251.99 325.378 246.248 325.977 240.601 325.64C234.657 325.286 228.735 323.888 226.34 321.82C225.96 321.491 225.623 321.06 225.331 320.544C223.737 317.726 223.332 311.941 223.862 306.275C224.392 300.603 225.865 294.977 228.024 292.476C228.42 292.016 228.846 291.651 229.298 291.395ZM243.092 290.979C237.763 290.943 232.433 291.482 230.097 292.803C229.81 292.966 229.525 293.214 229.248 293.534C227.316 295.772 225.975 301.042 225.473 306.419C224.97 311.8 225.31 317.217 226.739 319.743C226.941 320.101 227.162 320.389 227.4 320.594C229.523 322.428 235.06 323.685 240.695 324.021C246.045 324.339 251.412 323.82 253.947 322.166C254.278 321.95 254.598 321.625 254.904 321.21C256.891 318.51 258.007 312.506 258.307 306.657C258.607 300.827 258.103 295.234 256.847 293.303C256.737 293.137 256.63 293.014 256.53 292.94C254.938 291.77 249.062 291.02 243.092 290.979Z" fill="#8F9DFB"/>
<path fill-rule="evenodd" clip-rule="evenodd" d="M285.078 359.934C285.107 359.941 295.102 362.713 311.172 362.941L311.154 364.559C294.874 364.329 284.682 361.503 284.654 361.495L285.078 359.934ZM287.763 378.484C287.841 378.469 313.046 373.279 323.819 382.1C324.133 382.356 324.501 382.457 324.901 382.395C328.732 381.798 332.401 381.992 336.799 382.226C341.242 382.462 346.444 382.739 353.349 382.249L353.606 382.232L353.714 383.849L353.463 383.866C346.474 384.361 341.21 384.082 336.717 383.843C333.546 383.675 330.766 383.528 328.03 383.698C327.545 383.728 327.142 383.984 326.909 384.411C326.676 384.838 326.678 385.315 326.916 385.74C328.552 388.673 327.79 390.76 325.867 392.125C323.873 393.541 320.523 394.043 317.511 393.847C314.398 393.643 311.56 392.66 310.755 391.13C309.988 389.668 310.763 387.92 314.186 386.121C316.035 385.149 317.746 384.394 319.37 383.813C319.904 383.621 320.252 383.153 320.279 382.585C320.307 382.017 320.008 381.518 319.494 381.275C308.194 375.932 288.149 380.055 288.081 380.068L287.763 378.484ZM324.903 385.59C324.73 385.347 324.547 385.112 324.355 384.884C324.012 384.477 323.503 384.31 322.985 384.433C320.512 385.021 317.909 385.995 314.939 387.556C312.549 388.812 311.858 389.75 312.187 390.376C312.717 391.385 315.01 392.061 317.61 392.231C320.308 392.407 323.255 391.994 324.927 390.807C326.326 389.814 326.712 388.137 324.903 385.59ZM358.388 381.897C375.994 380.679 392.5 379.674 392.547 379.671L392.642 381.288C392.594 381.29 376.207 382.289 358.495 383.514L358.388 381.897ZM412.336 362.717C412.35 362.709 417.561 359.813 420.911 363.951L419.654 364.972C417.162 361.892 413.115 364.138 413.104 364.143L412.336 362.717ZM318.719 362.854C321.116 362.767 323.644 362.614 326.3 362.383C328.938 362.155 331.652 361.85 334.427 361.458C336.758 361.129 339.135 360.787 341.307 360.475C363.794 357.24 364.42 357.151 381.884 362.865C400.412 368.928 406.943 364.354 406.961 364.341L407.868 365.68C407.847 365.694 400.665 370.717 381.383 364.406C364.278 358.808 363.661 358.898 341.537 362.08C339.523 362.369 337.333 362.686 334.651 363.063C331.811 363.465 329.072 363.773 326.44 364C323.827 364.227 321.266 364.38 318.778 364.47L318.719 362.854Z" fill="#8F9DFB"/>
<path fill-rule="evenodd" clip-rule="evenodd" d="M226.428 355.936C229.027 354.467 234.662 353.865 240.229 353.903C246.492 353.945 252.768 354.813 254.618 356.175C254.882 356.37 255.121 356.634 255.333 356.958C256.772 359.167 257.37 365.152 257.056 371.283C256.741 377.397 255.527 383.741 253.342 386.71C252.924 387.279 252.463 387.737 251.959 388.066C249.119 389.919 243.378 390.517 237.731 390.181C231.788 389.826 225.865 388.428 223.47 386.36C223.092 386.034 222.757 385.602 222.463 385.083C220.867 382.266 220.462 376.48 220.992 370.814C221.522 365.142 222.995 359.515 225.155 357.015C225.551 356.559 225.976 356.193 226.428 355.936ZM240.223 355.521C234.894 355.484 229.563 356.023 227.228 357.344C226.941 357.507 226.657 357.756 226.38 358.076C224.448 360.313 223.107 365.583 222.605 370.96C222.102 376.341 222.442 381.759 223.872 384.285C224.072 384.641 224.292 384.928 224.532 385.135C226.655 386.969 232.192 388.226 237.828 388.561C243.178 388.879 248.544 388.36 251.079 386.707C251.41 386.49 251.731 386.167 252.036 385.751C254.023 383.05 255.139 377.047 255.44 371.199C255.739 365.368 255.235 359.775 253.979 357.845C253.869 357.679 253.763 357.556 253.662 357.482C252.068 356.312 246.192 355.561 240.223 355.521Z" fill="#8F9DFB"/>
<path fill-rule="evenodd" clip-rule="evenodd" d="M283.921 432.011C284.007 432.02 313.427 435.098 351.526 433.383C389.799 431.659 396.755 433.397 396.775 433.402L396.408 434.981C396.388 434.977 389.634 433.287 351.595 435C313.382 436.72 283.848 433.63 283.763 433.622L283.921 432.011ZM284.196 450.57L307.915 450.914L307.897 452.531L284.178 452.187L284.196 450.57Z" fill="#8F9DFB"/>
<path fill-rule="evenodd" clip-rule="evenodd" d="M224.006 418.415C226.604 416.946 232.24 416.344 237.807 416.382C244.07 416.424 250.346 417.292 252.196 418.654C252.458 418.847 252.696 419.112 252.911 419.441C254.35 421.646 254.948 427.631 254.634 433.76C254.319 439.875 253.104 446.219 250.92 449.189C250.502 449.758 250.041 450.216 249.537 450.544C246.697 452.397 240.956 452.995 235.309 452.658C229.365 452.304 223.443 450.906 221.048 448.838C220.67 448.511 220.334 448.08 220.041 447.561C218.445 444.743 218.04 438.958 218.57 433.292C219.1 427.62 220.573 421.994 222.732 419.493C223.128 419.038 223.554 418.672 224.006 418.415ZM237.8 418C232.471 417.963 227.141 418.502 224.805 419.824C224.518 419.987 224.234 420.236 223.957 420.556C222.025 422.792 220.684 428.064 220.181 433.44C219.679 438.822 220.019 444.24 221.448 446.766C221.648 447.122 221.868 447.409 222.108 447.616C224.232 449.45 229.768 450.707 235.403 451.044C240.754 451.362 246.121 450.842 248.655 449.189C248.986 448.972 249.306 448.648 249.612 448.233C251.598 445.534 252.715 439.529 253.015 433.68C253.315 427.848 252.811 422.252 251.554 420.324C251.447 420.161 251.341 420.039 251.238 419.962C249.646 418.79 243.77 418.04 237.8 418Z" fill="#8F9DFB"/>
<path fill-rule="evenodd" clip-rule="evenodd" d="M292.688 237.836C292.774 237.845 322.194 240.924 360.293 239.208C398.566 237.484 405.522 239.222 405.543 239.227L405.175 240.806C405.155 240.802 398.401 239.112 360.362 240.825C322.148 242.546 292.615 239.456 292.53 239.447L292.688 237.836ZM332.781 257.212C332.855 257.207 358.632 255.661 366.79 256.703L366.586 258.307C358.587 257.287 332.949 258.826 332.875 258.83L332.781 257.212ZM292.963 256.396L316.682 256.739L316.664 258.357L292.944 258.013L292.963 256.396Z" fill="#8F9DFB"/>
<path fill-rule="evenodd" clip-rule="evenodd" d="M231.873 234.761C234.472 233.291 240.107 232.689 245.674 232.728C251.937 232.771 258.213 233.639 260.063 235C260.327 235.195 260.566 235.459 260.778 235.784C262.217 237.992 262.815 243.978 262.5 250.108C262.185 256.223 260.971 262.566 258.786 265.535C258.368 266.104 257.907 266.563 257.403 266.89C254.563 268.743 248.822 269.341 243.176 269.005C237.233 268.65 231.309 267.252 228.916 265.184C228.535 264.856 228.198 264.424 227.907 263.908C226.312 261.09 225.908 255.304 226.437 249.638C226.967 243.967 228.441 238.339 230.6 235.84C230.997 235.382 231.421 235.016 231.873 234.761ZM245.669 234.345C240.339 234.309 235.01 234.847 232.673 236.169C232.386 236.331 232.102 236.579 231.825 236.9C229.892 239.136 228.553 244.408 228.049 249.785C227.546 255.167 227.886 260.585 229.316 263.111C229.518 263.468 229.738 263.757 229.976 263.961C232.099 265.795 237.636 267.052 243.272 267.388C248.621 267.706 253.988 267.186 256.522 265.533C256.853 265.316 257.173 264.992 257.479 264.577C259.466 261.877 260.582 255.873 260.883 250.025C261.182 244.194 260.678 238.602 259.422 236.671C259.311 236.506 259.205 236.382 259.105 236.308C257.514 235.136 251.638 234.386 245.669 234.345Z" fill="#8F9DFB"/>
<path fill-rule="evenodd" clip-rule="evenodd" d="M236.863 243.386C239.273 246.59 241.683 249.794 244.093 252.998C249.816 244.998 257.753 238.954 268.058 235.995C269.089 238.84 269.859 240.63 271.581 244.675C260.147 247.968 252.194 251.837 243.738 260.401C240.043 255.99 235.231 251.407 231.535 246.995C233.311 245.791 235.088 244.588 236.863 243.386Z" fill="#ECB55A"/>
<path fill-rule="evenodd" clip-rule="evenodd" d="M166.987 309.198L180.841 317.194L186.844 512.699L158.653 511.901L131.571 333.434C131.571 333.434 144.004 312.346 166.987 309.198Z" fill="#2B2235"/>
<path fill-rule="evenodd" clip-rule="evenodd" d="M157.433 503.057C157.433 503.057 162.499 511.039 170.103 511.576C177.707 512.112 186.474 501.382 186.474 501.382C186.474 501.382 206.931 504.907 209.767 510.988C212.601 517.068 213.596 525.158 213.596 525.158L151.05 524.988C150.298 515.553 154.057 507.342 157.433 503.057Z" fill="#D2774D"/>
<path fill-rule="evenodd" clip-rule="evenodd" d="M162.054 320.969C162.054 320.969 168.593 348.737 147.111 359.454L114.114 512.449L84.4811 512.353C86.4732 495.916 100.24 336.792 102.189 324.874C119.468 323.047 162.054 320.969 162.054 320.969Z" fill="#462C46"/>
<path fill-rule="evenodd" clip-rule="evenodd" d="M119.96 485.344L114.115 512.449L84.4822 512.353C84.8892 508.993 85.7901 499.661 86.9792 486.847C92.9137 501.593 103.589 514.167 119.96 485.344Z" fill="#2B2235"/>
<path fill-rule="evenodd" clip-rule="evenodd" d="M109.497 366.029C108.549 382.141 107.569 401.467 107.986 406.548C108.055 407.395 108.113 408.054 108.176 408.752C108.569 413.185 109.075 418.902 108.695 423.7C108.243 429.415 106.537 433.85 101.935 433.453C99.9768 433.284 98.8966 433.393 98.4368 433.666C98.2696 433.765 98.2289 433.895 98.2817 434.041C98.3697 434.283 98.6271 434.576 98.9945 434.887C100.355 436.039 103.082 437.311 104.746 437.559C109.122 438.211 102.189 440.549 100.969 440.944L95.4921 494.703L94.93 494.641L100.446 440.492L100.626 440.435C100.643 440.43 106.881 438.473 104.666 438.143C102.92 437.882 100.061 436.551 98.637 435.345C98.1937 434.97 97.8769 434.596 97.7515 434.25C97.5909 433.808 97.6954 433.428 98.1563 433.155C98.7096 432.826 99.8998 432.686 101.98 432.865C106.146 433.224 107.703 429.039 108.13 423.653C108.506 418.895 108.003 413.214 107.614 408.807L107.422 406.598C107.14 403.171 107.49 393.318 108.036 382.33C108.309 376.852 108.529 371.082 108.984 365.381C125.842 367.43 126.174 355.92 126.177 355.887L128.334 355.913C128.331 355.946 126.391 367.815 109.497 366.029Z" fill="#2B2235"/>
<path fill-rule="evenodd" clip-rule="evenodd" d="M104.454 505.486C91.8863 506.553 82.0842 509.904 78.5653 526.144L121.671 525.167C120.248 516.349 114.492 504.635 104.454 505.486Z" fill="#ECB55A"/>
<path fill-rule="evenodd" clip-rule="evenodd" d="M162.054 320.481C162.054 320.481 163.316 325.621 162.909 332.254C147.134 339.07 114.135 351.608 100.151 344.027C101.083 333.71 101.808 326.458 102.189 324.224C119.468 322.474 162.054 320.481 162.054 320.481Z" fill="#2B2235"/>
<path fill-rule="evenodd" clip-rule="evenodd" d="M105.203 199.025L101.275 202.106C89.1847 212.355 60.7354 223.956 67.342 238.416C67.342 238.416 109.877 280.965 98.3477 331.782C98.3477 331.782 125.787 344.394 181.255 319.737C181.255 319.737 186.23 274.41 169.402 225.998C169.402 225.998 147.402 207.141 131.912 203.909L105.203 199.025Z" fill="#ECB55A"/>
<path fill-rule="evenodd" clip-rule="evenodd" d="M105.203 199.025L101.275 202.106C99.5984 203.527 97.6063 204.975 95.4382 206.452C102.5 214.104 129.989 216.177 138.852 206.146C136.462 205.15 134.121 204.371 131.913 203.91L105.203 199.025Z" fill="white"/>
<path fill-rule="evenodd" clip-rule="evenodd" d="M78.8106 252.555C90.475 269.179 105.848 298.729 98.3477 331.783C98.3477 331.783 125.787 344.395 181.255 319.739C181.255 319.739 182.533 308.069 181.598 290.253C178.914 297.661 181.44 301.94 166.167 306.777C134.361 308.999 128.921 277.042 128.921 277.042C127.672 272.295 123.012 284.535 133.284 297.294C143.556 310.053 156.226 307.886 165.388 307.019C161.373 308.226 175.357 307.48 151.471 309.587C127.586 311.694 87.56 248.318 87.56 248.318L78.8106 252.555Z" fill="#D2774D"/>
<path fill-rule="evenodd" clip-rule="evenodd" d="M89.1494 143.45C89.1494 143.45 76.8822 121.315 76.7348 111.996C76.5874 102.677 82.6517 113.327 82.6517 113.327C82.6517 113.327 84.723 104.747 88.8645 103.564C93.006 102.38 88.8645 108.889 88.8645 108.889C88.8645 108.889 112.386 91.2854 132.8 99.1251C153.213 106.965 160.462 101.492 157.06 98.09C153.658 94.6877 149.96 98.5333 151.291 101.344C151.291 101.344 144.782 98.09 149.515 93.6515C153.931 89.5111 178.55 111.633 155.776 128.913C156.118 133.79 155.035 140.396 147.892 144.096C142.004 147.147 140.745 142.443 142.249 136.687C115.025 150.339 99.1781 150.946 89.1494 143.45Z" fill="#2B2235"/>
<path fill-rule="evenodd" clip-rule="evenodd" d="M77.4257 116.498C77.0066 114.814 76.7547 113.282 76.7338 111.995C76.5853 102.676 82.6507 113.326 82.6507 113.326C82.6507 113.326 84.722 104.746 88.8646 103.562C93.0061 102.379 88.8646 108.888 88.8646 108.888C88.8646 108.888 112.386 91.2843 132.8 99.124C135.003 99.9699 137.051 100.661 138.951 101.216C145.45 105.218 144.951 113.358 137.334 117.008C136.445 117.433 135.479 117.826 134.454 118.192C136.756 118.185 141.749 117.718 144.529 114.065C148.224 109.21 145.37 105.31 143.368 104.269C143.368 104.269 151.576 107.835 149.427 114.581C147.602 120.312 137.188 118.88 134.095 118.319C122.773 122.237 104.383 122.96 96.9606 126.827C84.7583 133.187 86.1322 120.983 86.1322 120.983C83.809 126.076 80.2802 121.791 77.4257 116.498ZM161.455 108.344C161.239 128.217 150.906 122.914 150.906 122.914C167.428 122.59 161.455 108.344 161.455 108.344Z" fill="#462C46"/>
<path fill-rule="evenodd" clip-rule="evenodd" d="M96.9661 154.404C96.9661 154.404 103.16 180.027 101.275 202.218C102.821 205.312 120.289 211.769 131.913 204.088C131.913 204.088 135.243 171.992 128.031 161.397C120.82 150.802 110.849 151.522 96.9661 154.404Z" fill="#E79A6D"/>
<path fill-rule="evenodd" clip-rule="evenodd" d="M132.414 197.288C132.956 187.27 133.149 168.918 128.03 161.397C122.891 153.847 113.995 151.52 104.282 151.848L97.592 168.557C97.592 168.557 115.46 198.183 132.414 197.288Z" fill="#C65A45"/>
<path fill-rule="evenodd" clip-rule="evenodd" d="M153.331 136.084C155.184 148.603 156.998 170.673 150.334 186.741C147.979 189.847 103.663 198.564 97.4743 168.09L96.3743 160.817C85.9276 169.949 74.7406 140.21 87.7734 135.695C94.1787 133.477 95.3073 143.535 95.3073 143.535C95.3073 143.535 102.187 139.837 103.277 129.777C103.277 129.777 126.25 124.033 145.821 125.655C145.941 125.669 146.071 125.68 146.211 125.689C146.329 125.699 146.446 125.709 146.563 125.72C151.51 126.329 153.252 135.644 153.331 136.084Z" fill="#E79A6D"/>
<path fill-rule="evenodd" clip-rule="evenodd" d="M95.3073 143.535C95.3073 143.535 102.187 139.837 103.277 129.779C103.277 129.778 106.81 139.799 95.3073 143.535ZM103.277 129.779C120.67 127.145 140.067 128.497 151.169 129.707C150.109 127.717 148.611 125.972 146.563 125.719C146.445 125.708 146.327 125.698 146.211 125.688C146.072 125.679 145.941 125.668 145.821 125.654C126.251 124.033 103.277 129.779 103.277 129.779Z" fill="#C65A45"/>
<path fill-rule="evenodd" clip-rule="evenodd" d="M96.3743 160.818C88.1749 167.986 79.5212 151.207 82.4802 141.473C88.9394 138.899 93.016 149.751 93.016 149.751C86.9671 147.531 86.999 157.253 95.975 157L96.3743 160.818Z" fill="#C65A45"/>
<path fill-rule="evenodd" clip-rule="evenodd" d="M103.916 128.256C103.916 128.256 137.2 122.879 146.371 129.77C146.371 129.77 128.311 125.874 103.916 128.256ZM102.733 126.073C102.733 126.073 105.692 137.315 98.3697 140.939C98.3697 140.939 104.731 143.602 102.733 126.073Z" fill="#2B2235"/>
<path fill-rule="evenodd" clip-rule="evenodd" d="M122.177 155.962C124.862 155.962 127.039 156.531 127.039 157.233C127.039 157.935 124.862 158.503 122.177 158.503C119.492 158.503 117.314 157.935 117.314 157.233C117.314 156.531 119.492 155.962 122.177 155.962ZM148.181 155.884C150.495 155.884 152.372 156.453 152.372 157.155C152.372 157.857 150.495 158.425 148.181 158.425C145.867 158.425 143.99 157.857 143.99 157.155C143.99 156.453 145.867 155.884 148.181 155.884Z" fill="#C65A45"/>
<path fill-rule="evenodd" clip-rule="evenodd" d="M133.85 158.382C134.911 159.546 145.075 161.462 143.44 157.171C143.44 157.171 144.1 163.424 139.621 163.693C135.142 163.962 133.85 158.382 133.85 158.382Z" fill="#C65A45"/>
<path fill-rule="evenodd" clip-rule="evenodd" d="M144.61 169.731C144.61 169.731 123.974 168.621 122.495 170.619C121.015 172.616 122.938 183.489 133.737 183.489C144.536 183.489 149.417 172.764 144.61 169.731Z" fill="#C65A45"/>
<path fill-rule="evenodd" clip-rule="evenodd" d="M123.896 178.445C125.633 181.151 128.731 183.488 133.737 183.488C133.845 183.488 133.951 183.485 134.058 183.483C133.245 180.561 130.863 176.76 123.896 178.445Z" fill="#AC4836"/>
<path fill-rule="evenodd" clip-rule="evenodd" d="M144.61 169.731C144.61 169.731 128.564 168.868 123.759 170.034C124.057 171.133 124.552 172.417 125.343 173.244C126.97 174.946 140.505 175.093 143.02 173.836C144.449 173.122 144.97 171.453 145.154 170.146C144.988 169.995 144.808 169.856 144.61 169.731Z" fill="white"/>
<path fill-rule="evenodd" clip-rule="evenodd" d="M117.363 140.534H128.991C128.991 140.534 127.786 136.485 123.461 136.639C119.137 136.791 117.363 140.534 117.363 140.534Z" fill="#462C46"/>
<path fill-rule="evenodd" clip-rule="evenodd" d="M139.525 140.534H151.153C151.153 140.534 149.948 136.485 145.623 136.639C141.297 136.791 139.525 140.534 139.525 140.534Z" fill="#462C46"/>
<path fill-rule="evenodd" clip-rule="evenodd" d="M128.463 149.253C128.463 149.253 127.453 143.703 123.996 143.862C120.54 144.021 116.481 149.292 116.481 149.292C116.481 149.292 121.586 151.867 128.463 149.253Z" fill="white"/>
<path fill-rule="evenodd" clip-rule="evenodd" d="M127.531 146.958C127.047 145.992 126.383 144.956 125.573 144.358C125.182 144.176 124.753 144.067 124.303 144.052C122.493 143.994 121.024 145.47 121.024 147.349C121.024 148.655 121.733 149.811 122.773 150.416C123.973 150.377 125.305 150.205 126.736 149.815C127.262 149.229 127.582 148.439 127.582 147.561C127.582 147.356 127.565 147.154 127.531 146.958Z" fill="#462C46"/>
<path fill-rule="evenodd" clip-rule="evenodd" d="M116.481 149.292C119.021 146.023 127.018 142.52 128.463 149.254C128.463 149.254 128.907 143.331 124.316 142.987C119.725 142.642 117.527 146.205 116.481 149.292Z" fill="#462C46"/>
<path fill-rule="evenodd" clip-rule="evenodd" d="M121.257 148.479C121.989 148.479 122.586 148.149 122.586 147.743C122.586 147.338 121.989 147.007 121.257 147.007C120.526 147.007 119.927 147.337 119.927 147.743C119.927 148.149 120.525 148.479 121.257 148.479Z" fill="white"/>
<path fill-rule="evenodd" clip-rule="evenodd" d="M150.877 149.253C150.877 149.253 149.866 143.703 146.41 143.862C142.954 144.021 138.895 149.292 138.895 149.292C138.895 149.292 144 151.867 150.877 149.253Z" fill="white"/>
<path fill-rule="evenodd" clip-rule="evenodd" d="M149.944 146.958C149.459 145.992 148.797 144.956 147.986 144.358C147.596 144.176 147.167 144.067 146.717 144.052C144.906 143.994 143.438 145.47 143.438 147.349C143.438 148.655 144.146 149.811 145.187 150.416C146.387 150.377 147.719 150.205 149.15 149.815C149.676 149.229 149.996 148.439 149.996 147.561C149.996 147.356 149.978 147.154 149.944 146.958Z" fill="#462C46"/>
<path fill-rule="evenodd" clip-rule="evenodd" d="M138.895 149.292C141.435 146.023 149.432 142.52 150.877 149.254C150.877 149.254 151.32 143.331 146.73 142.987C142.139 142.642 139.941 146.205 138.895 149.292Z" fill="#462C46"/>
<path fill-rule="evenodd" clip-rule="evenodd" d="M143.67 148.479C144.401 148.479 144.999 148.149 144.999 147.743C144.999 147.338 144.401 147.007 143.67 147.007C142.937 147.007 142.341 147.337 142.341 147.743C142.341 148.149 142.938 148.479 143.67 148.479Z" fill="white"/>
<path fill-rule="evenodd" clip-rule="evenodd" d="M123.221 137.731C128.081 137.731 132.104 141.309 132.803 145.974C134.498 144.94 135.897 145.311 136.766 145.797C137.381 141.038 141.449 137.363 146.375 137.363C151.726 137.363 156.064 141.702 156.064 147.052C156.064 152.402 151.725 156.741 146.375 156.741C141.023 156.741 136.686 152.402 136.686 147.052L136.688 146.911C135.402 146.351 133.748 146.866 132.909 147.205C132.91 147.276 132.911 147.348 132.911 147.419C132.911 152.771 128.572 157.108 123.222 157.108C117.87 157.108 113.533 152.77 113.533 147.419C113.533 147.302 113.535 147.185 113.54 147.07L95.6296 143.388L95.6692 142.375L113.804 145.14C114.828 140.889 118.655 137.731 123.221 137.731ZM146.743 138.694C142.086 138.694 138.312 142.469 138.312 147.126C138.312 151.783 142.087 155.557 146.743 155.557C151.4 155.557 155.175 151.782 155.175 147.126C155.176 142.468 151.401 138.694 146.743 138.694ZM123.59 139.062C118.933 139.062 115.159 142.837 115.159 147.493C115.159 152.151 118.934 155.925 123.59 155.925C128.247 155.925 132.022 152.149 132.022 147.493C132.023 142.837 128.248 139.062 123.59 139.062Z" fill="white"/>
<path fill-rule="evenodd" clip-rule="evenodd" d="M82.6573 267.044L86.6338 272.899C86.6338 272.899 85.4535 280.668 70.3285 282.645C55.2035 284.621 52.833 280.311 53.5326 276.672C53.5326 276.672 64.3126 250.676 82.6573 267.044Z" fill="#462C46"/>
<path fill-rule="evenodd" clip-rule="evenodd" d="M83.2546 270.461L80.1383 301.622L56.8183 306.112C56.8183 306.112 55.8492 286.924 60.1084 268.228C69.1449 246.26 83.2546 270.461 83.2546 270.461Z" fill="#C65A45"/>
<path fill-rule="evenodd" clip-rule="evenodd" d="M86.5808 245.297C80.6683 233.612 69.3372 224.862 65.0758 235.171C60.8144 245.48 56.6333 259.809 53.5313 276.673C63.4148 264.611 76.2859 264.705 86.6336 272.9C88.5344 259.948 88.783 249.649 86.5808 245.297Z" fill="#ECB55A"/>
<path fill-rule="evenodd" clip-rule="evenodd" d="M64.7658 292.733C80.6432 283.95 102.799 289.806 139.929 281.563L154.755 274.541C154.755 274.541 158.627 285.91 157.254 296.279C157.254 296.279 145.841 298.219 142.927 295.812C142.927 295.812 91.1174 310.806 74.4535 313.649C57.7907 316.491 48.8895 301.517 64.7658 292.733Z" fill="#E79A6D"/>
<path fill-rule="evenodd" clip-rule="evenodd" d="M151.383 280.539L154.756 274.541C154.756 274.541 161.205 273.633 167.264 273.196C173.324 272.759 173.449 278.817 167.594 279.165C161.737 279.513 151.383 280.539 151.383 280.539Z" fill="#E79A6D"/>
<path fill-rule="evenodd" clip-rule="evenodd" d="M152.791 284.913L156.226 283.789C156.226 283.789 168.095 284.788 169.22 285.6C170.344 286.412 170.344 289.037 168.595 289.536C166.846 290.035 165.971 290.035 165.971 290.035C165.971 290.035 164.597 293.909 163.285 294.284C161.973 294.659 157.254 296.28 157.254 296.28L152.791 284.913Z" fill="#E79A6D"/>
<path fill-rule="evenodd" clip-rule="evenodd" d="M154.042 279.73L172.219 279.293C173.679 279.257 175.217 284.083 171.844 284.103L154.969 284.2L154.042 279.73Z" fill="#E79A6D"/>
<path fill-rule="evenodd" clip-rule="evenodd" d="M120.162 285.275C120.135 285.282 111.257 287.766 96.0234 287.18C88.4543 286.888 82.0138 286.871 76.3884 288.037C70.7938 289.196 65.9912 291.534 61.6583 295.951L61.1963 295.497C65.6282 290.977 70.5386 288.587 76.2586 287.402C81.9478 286.223 88.4312 286.239 96.0454 286.533C111.181 287.116 119.966 284.657 119.991 284.651L120.162 285.275Z" fill="white"/>
<path fill-rule="evenodd" clip-rule="evenodd" d="M126.818 284.31C131.047 284.31 134.476 287.738 134.476 291.968C134.476 295.066 132.635 297.735 129.987 298.941L130.166 299.887L126.574 300.742L126.351 299.611C122.34 299.37 119.162 296.04 119.162 291.968C119.161 287.738 122.588 284.31 126.818 284.31Z" fill="#462C46"/>
<path fill-rule="evenodd" clip-rule="evenodd" d="M126.397 297.836C130.614 297.836 134.055 294.397 134.055 290.179C134.055 285.962 130.615 282.521 126.397 282.521C122.179 282.521 118.738 285.962 118.738 290.179C118.74 294.397 122.179 297.836 126.397 297.836Z" fill="#462C46"/>
<path fill-rule="evenodd" clip-rule="evenodd" d="M126.397 296.607C129.936 296.607 132.824 293.72 132.824 290.179C132.824 286.638 129.937 283.752 126.397 283.752C122.857 283.752 119.969 286.639 119.969 290.179C119.969 293.719 122.857 296.607 126.397 296.607Z" fill="#ECB55A"/>
<path fill-rule="evenodd" clip-rule="evenodd" d="M126.952 296.607C130.186 296.607 132.824 293.969 132.824 290.735C132.824 287.501 130.186 284.862 126.952 284.862C123.718 284.862 121.079 287.5 121.079 290.735C121.079 293.969 123.717 296.607 126.952 296.607Z" fill="white"/>
<path fill-rule="evenodd" clip-rule="evenodd" d="M129.076 285.681L126.988 289.739C127.081 289.862 127.135 290.015 127.135 290.18C127.135 290.257 127.124 290.331 127.102 290.401L128.975 292.177L128.528 292.646L126.655 290.871C126.575 290.901 126.488 290.917 126.398 290.917C125.991 290.917 125.66 290.587 125.66 290.18C125.66 289.773 125.99 289.442 126.398 289.442H126.413L128.501 285.384L129.076 285.681Z" fill="#462C46"/>
<path fill-rule="evenodd" clip-rule="evenodd" d="M493.178 397.633C493.56 400.761 493.746 403.818 493.746 406.793C493.746 423.107 488.197 437.095 478.985 447.462C469.768 457.833 456.896 464.56 442.255 466.349C439.662 466.666 437.018 466.827 434.334 466.827C416.42 466.827 400.201 459.565 388.462 447.826C376.721 436.087 369.46 419.867 369.46 401.954C369.46 384.04 376.721 367.821 388.462 356.081C400.201 344.342 416.42 337.08 434.334 337.08L435.543 337.098C452.977 337.421 468.729 344.705 480.119 356.516C491.503 368.319 498.532 384.637 498.532 403.042L498.513 404.385L495.278 404.334L495.284 403.042C495.284 385.509 488.604 369.979 477.784 358.761C466.973 347.552 452.029 340.64 435.491 340.333L434.333 340.328C417.315 340.328 401.908 347.226 390.757 358.378C379.606 369.53 372.708 384.937 372.708 401.954C372.708 418.972 379.606 434.378 390.757 445.53C401.909 456.682 417.316 463.579 434.333 463.579C436.893 463.579 439.406 463.426 441.861 463.126C455.707 461.435 467.869 455.087 476.561 445.305C485.257 435.518 490.497 422.273 490.497 406.791C490.497 403.939 490.32 401.013 489.954 398.024L493.178 397.633Z" fill="#2B2235"/>
<path fill-rule="evenodd" clip-rule="evenodd" d="M433.996 396.11C434.026 396.11 434.058 396.11 434.088 396.111C434.639 396.12 435.114 395.824 435.35 395.327L452.287 359.668L455.217 361.051L438.276 396.718C438.04 397.216 438.111 397.771 438.467 398.193C439.322 399.209 439.838 400.521 439.838 401.954C439.838 402.797 439.66 403.598 439.338 404.322C439.115 404.826 439.2 405.38 439.567 405.793L455.651 423.91L453.228 426.055L437.148 407.941C436.783 407.528 436.242 407.378 435.716 407.539C435.172 407.707 434.595 407.797 433.995 407.797C430.768 407.797 428.152 405.18 428.152 401.954C428.153 398.726 430.769 396.11 433.996 396.11Z" fill="#2B2235"/>
<path fill-rule="evenodd" clip-rule="evenodd" d="M435.942 349.024L435.708 356.006H432.675L432.908 349.024H435.942Z" fill="#2B2235"/>
<path fill-rule="evenodd" clip-rule="evenodd" d="M379.238 399.883H386.22L386.119 402.916H379.137L379.238 399.883Z" fill="#2B2235"/>
<path fill-rule="evenodd" clip-rule="evenodd" d="M428.256 454.885L428.491 447.903H431.523L431.29 454.885H428.256Z" fill="#2B2235"/>
<path fill-rule="evenodd" clip-rule="evenodd" d="M484.96 404.025H477.979L478.08 400.992H485.062L484.96 404.025Z" fill="#2B2235"/>
<path fill-rule="evenodd" clip-rule="evenodd" d="M472.244 367.243L468.713 370.545L466.568 368.401L470.099 365.099L472.244 367.243Z" fill="#2B2235"/>
<path fill-rule="evenodd" clip-rule="evenodd" d="M396.831 364.054L400.082 367.307L397.866 369.379L394.614 366.128L396.831 364.054Z" fill="#2B2235"/>
<path fill-rule="evenodd" clip-rule="evenodd" d="M391.954 436.664L395.644 433.215L397.788 435.36L394.099 438.809L391.954 436.664Z" fill="#2B2235"/>
<path fill-rule="evenodd" clip-rule="evenodd" d="M468.014 440.797L464.28 437.064L466.497 434.991L470.23 438.725L468.014 440.797Z" fill="#2B2235"/>
<path fill-rule="evenodd" clip-rule="evenodd" d="M468.784 307.291L471.449 289L468.784 268.211C468.784 267.638 468.453 267.148 467.92 266.935C467.388 266.721 466.81 266.847 466.414 267.261L459.725 274.266C459.203 274.813 458.331 274.834 457.783 274.312L457.427 273.975C457.152 273.713 457.009 273.391 457 273.012C456.992 272.633 457.119 272.304 457.381 272.03L469.419 259.425C469.696 259.136 470.043 258.992 470.444 259C470.844 259.009 471.185 259.169 471.449 259.469L482.753 272.386C483.252 272.956 483.194 273.828 482.624 274.327L482.258 274.647C481.688 275.145 480.817 275.087 480.317 274.517L474.442 267.803C474.057 267.363 473.471 267.216 472.924 267.421C472.377 267.625 472.032 268.125 472.032 268.708L474.442 289L472.032 307.293C472.032 308.049 471.414 308.668 470.657 308.668H470.159C469.402 308.666 468.784 308.048 468.784 307.291Z" fill="#2B2235"/>
<path fill-rule="evenodd" clip-rule="evenodd" d="M424.692 140.436L423.668 144.447C422.525 148.917 417.932 151.64 413.462 150.497C408.992 149.355 406.267 144.761 407.41 140.291L408.435 136.278L408.537 136.307L414.408 137.807C414.878 137.927 415.331 137.846 415.731 137.57C416.131 137.292 416.365 136.897 416.418 136.414C416.746 133.384 417.334 129.039 418.3 125.112C418.594 123.916 418.304 122.756 417.511 121.957C417.284 121.729 417.074 121.486 416.881 121.236C416.249 120.407 415.804 119.477 415.603 118.553C415.389 117.578 415.44 116.604 415.806 115.75C416.137 114.98 416.718 114.32 417.583 113.86L417.7 114.162C417.873 114.606 417.754 115.122 417.404 115.45C417.154 115.685 416.969 115.954 416.844 116.245C416.6 116.816 416.571 117.49 416.723 118.183C416.886 118.928 417.252 119.689 417.776 120.373C417.898 120.531 418.029 120.685 418.167 120.832C418.398 121.083 418.707 121.173 419.035 121.091C419.363 121.007 419.62 120.771 419.758 120.427C420.789 117.864 422.085 116.021 423.704 115.745C425.427 115.451 426.496 115.973 427.031 116.886C427.382 117.484 427.487 118.231 427.386 119.017C427.293 119.753 427.017 120.531 426.595 121.246C425.675 122.804 424.049 124.1 422.086 124.065C420.635 124.039 419.345 125.171 419.014 126.762C418.235 130.496 417.753 134.495 417.487 137.175C417.407 137.976 417.916 138.703 418.696 138.903L424.692 140.436ZM423.813 117.013C422.49 117.238 421.412 118.888 420.539 121.213C420.424 121.517 420.431 121.822 420.557 122.105C420.683 122.388 420.894 122.571 421.174 122.642C421.364 122.688 421.558 122.727 421.757 122.754C423.44 122.989 424.858 121.911 425.637 120.591C425.963 120.04 426.173 119.452 426.243 118.908C426.305 118.413 426.25 117.962 426.053 117.627C425.743 117.094 425.033 116.805 423.813 117.013Z" fill="#2B2235"/>
<path fill-rule="evenodd" clip-rule="evenodd" d="M430.204 86.8947C436.532 88.5126 441.606 92.5419 444.692 97.7482C447.779 102.954 448.879 109.339 447.262 115.668C446.352 119.23 444.674 122.398 442.449 125.038C440.141 127.777 437.244 129.946 434.01 131.398C433.583 131.588 433.227 131.853 432.954 132.176C432.683 132.499 432.485 132.893 432.368 133.35L431.161 138.075C430.83 139.368 430.003 140.408 428.935 141.04C427.868 141.673 426.559 141.9 425.265 141.569L408.302 137.233C407.007 136.903 405.969 136.075 405.335 135.007C404.705 133.936 404.476 132.628 404.806 131.338L406.018 126.615C406.131 126.157 406.145 125.716 406.062 125.303C405.979 124.888 405.793 124.486 405.51 124.113C403.368 121.288 401.868 117.994 401.158 114.483C400.474 111.1 400.521 107.515 401.431 103.954C403.048 97.6256 407.078 92.5523 412.285 89.4658C417.491 86.3783 423.876 85.2781 430.204 86.8947ZM411.47 92.2933C414.455 91.0708 419.414 89.4903 420.713 91.835C422.608 95.2507 414.283 101.384 409.462 101.002C406.39 100.759 406.35 98.532 407.207 96.4277C405.412 98.7241 404.051 101.421 403.283 104.427C402.444 107.708 402.399 111.003 403.027 114.106C403.68 117.333 405.059 120.362 407.031 122.96C407.488 123.563 407.79 124.227 407.932 124.926C408.073 125.627 408.054 126.356 407.866 127.087L406.654 131.811C406.457 132.597 406.594 133.388 406.975 134.032C407.363 134.68 407.992 135.182 408.775 135.381L425.738 139.717C426.521 139.917 427.314 139.779 427.961 139.396C428.608 139.013 429.109 138.384 429.31 137.601L430.517 132.876C430.704 132.145 431.036 131.496 431.497 130.948C431.956 130.402 432.54 129.966 433.23 129.656C436.206 128.322 438.869 126.328 440.991 123.809C443.031 121.388 444.572 118.476 445.41 115.194C446.897 109.378 445.885 103.509 443.048 98.722C440.21 93.9363 435.547 90.2325 429.731 88.7456C423.915 87.2586 418.045 88.2707 413.259 91.1071C412.644 91.474 412.046 91.8688 411.47 92.2933Z" fill="white"/>
<path fill-rule="evenodd" clip-rule="evenodd" d="M282.988 66.4624C285.102 69.3312 291.14 77.6692 291.565 79.9352C292.081 82.6852 287.956 142.669 287.956 142.669L209.521 141.988C208.967 141.983 208.492 141.839 208.029 141.533C206.155 140.296 204.806 139.169 202.612 136.405L281.598 137.427C284.348 122.903 283.985 76.0742 283.985 76.0742L281.7 73.4892C282.136 70.5258 282.569 68.0948 282.988 66.4624Z" fill="#DAE0FD"/>
<path fill-rule="evenodd" clip-rule="evenodd" d="M205.726 65.4121C216.939 64.729 276.884 61.2882 282.262 65.4847C287.716 69.7406 283.458 125.282 282.579 136.042C282.46 137.481 281.258 138.579 279.814 138.565C254.888 138.339 229.962 138.108 205.036 137.888C204.277 137.881 203.625 137.604 203.095 137.062C202.565 136.519 202.301 135.863 202.311 135.104L203.146 68.1225C203.163 66.6793 204.287 65.5012 205.726 65.4121ZM281.267 66.7596C276.525 63.0592 221.464 66.0941 207.328 66.9389C205.887 67.0258 204.763 68.205 204.744 69.6493L203.949 133.501C203.939 134.26 204.203 134.916 204.733 135.459C205.263 136.001 205.915 136.279 206.674 136.285L278.319 136.934C279.764 136.947 280.969 135.846 281.084 134.405C282.167 120.902 285.888 70.3665 281.267 66.7596Z" fill="white"/>
<path fill-rule="evenodd" clip-rule="evenodd" d="M206.527 66.1757C219.387 65.4013 276.724 62.1882 281.765 66.1229C283.375 67.3791 284.061 73.6799 284.217 82.063H203.782L203.946 68.8872C203.963 67.4429 205.086 66.2637 206.527 66.1757Z" fill="white"/>
<path fill-rule="evenodd" clip-rule="evenodd" d="M220.198 96.3884C218.626 103.999 217.278 117.115 218.789 124.662C219.439 127.911 224.671 129.251 229.9 129.172C235.32 129.09 240.738 127.485 241.062 124.905C241.696 119.835 243.506 100.685 242.512 95.7009C241.517 90.7168 233.086 88.5685 228.038 89.0833C222.991 89.5992 220.98 92.6924 220.198 96.3884ZM251.482 95.0783C251.482 95.0783 257.112 94.8132 258.396 89.9105L263.294 89.8159L262.216 128.924L257.551 129.041L258.887 96.2498C258.887 96.2498 257.149 99.717 251.753 99.2451L251.482 95.0783ZM223.182 99.5091C223.768 96.6216 224.846 93.8606 228.635 93.458C232.423 93.0554 237.724 94.6482 238.473 98.5433C239.224 102.438 237.961 116.972 237.488 120.933C237.247 122.948 234.124 124.719 230.056 124.783C226.13 124.844 221.682 123.844 221.711 121.258C221.775 115.533 222.006 105.456 223.182 99.5091Z" fill="#2B2235"/>
<path fill-rule="evenodd" clip-rule="evenodd" d="M62.5064 526.596C62.5658 526.594 67.8106 526.529 71.1128 526.417C65.175 522.148 53.6481 509.129 59.323 503.414C64.9979 497.698 74.1939 521.8 74.1939 521.8C74.1939 521.8 76.4478 499.487 82.4659 499.506C87.4885 499.523 79.4211 519.508 76.6117 526.123C100.399 525.358 152.077 523.829 214.156 522.796C215.318 512.917 222.289 494.675 229.116 497.119C238.04 500.315 223.682 516.719 219.034 522.715C287.45 521.618 367.747 521.152 437.12 522.969C434.542 516.319 427.066 495.988 432.099 496.132C438.115 496.303 439.656 518.677 439.656 518.677C439.656 518.677 454.221 493.778 460.458 500.085C466.695 506.392 449.898 518.987 443.675 523.229C451.818 523.47 462.548 523.744 470.314 524.055L470.187 527.29C310.745 520.905 63.3358 529.807 62.6197 529.832L62.5064 526.596Z" fill="#2B2235"/>
<path fill-rule="evenodd" clip-rule="evenodd" d="M470.856 482.041C472.276 482.041 473.434 480.882 473.434 479.462C473.434 478.042 472.276 476.884 470.856 476.884C469.436 476.884 468.278 478.042 468.278 479.462C468.278 480.882 469.436 482.041 470.856 482.041Z" fill="white"/>
<path fill-rule="evenodd" clip-rule="evenodd" d="M302.014 123.591C304.949 123.591 307.342 121.198 307.342 118.263C307.342 115.328 304.949 112.935 302.014 112.935C299.079 112.935 296.685 115.328 296.685 118.263C296.685 121.199 299.079 123.591 302.014 123.591Z" fill="white"/>
<path fill-rule="evenodd" clip-rule="evenodd" d="M315.076 91.2787C316.686 91.2787 317.998 89.9664 317.998 88.3571C317.998 86.7478 316.686 85.4355 315.076 85.4355C313.467 85.4355 312.155 86.7478 312.155 88.3571C312.154 89.9664 313.467 91.2787 315.076 91.2787Z" fill="white"/>
<path fill-rule="evenodd" clip-rule="evenodd" d="M187.544 83.0289C189.343 83.0289 190.81 81.5626 190.81 79.763C190.81 77.9645 189.344 76.4971 187.544 76.4971C185.745 76.4971 184.279 77.9634 184.279 79.763C184.28 81.5626 185.746 83.0289 187.544 83.0289Z" fill="white"/>
<path d="M442.934 144.805C445.173 145.225 447.329 143.751 447.749 141.512C448.169 139.273 446.695 137.117 444.456 136.697C442.217 136.276 440.061 137.751 439.641 139.99C439.22 142.229 440.695 144.385 442.934 144.805Z" fill="white"/>
<path fill-rule="evenodd" clip-rule="evenodd" d="M388.289 121.955C389.313 122.147 390.304 121.469 390.496 120.446C390.688 119.422 390.01 118.431 388.987 118.239C387.963 118.047 386.973 118.725 386.78 119.749C386.588 120.771 387.266 121.763 388.289 121.955Z" fill="white"/>
<path fill-rule="evenodd" clip-rule="evenodd" d="M456.329 114.443C457.073 114.583 457.794 114.09 457.934 113.345C458.073 112.601 457.58 111.88 456.836 111.74C456.091 111.6 455.371 112.094 455.231 112.838C455.091 113.583 455.584 114.303 456.329 114.443Z" fill="white"/>
<path fill-rule="evenodd" clip-rule="evenodd" d="M51.0488 361.856C53.9836 361.856 56.3772 359.462 56.3772 356.527C56.3772 353.592 53.9836 351.199 51.0488 351.199C48.114 351.199 45.7204 353.592 45.7204 356.527C45.7215 359.463 48.1151 361.856 51.0488 361.856Z" fill="white"/>
<path fill-rule="evenodd" clip-rule="evenodd" d="M47.0965 321.294C48.422 321.294 49.5022 320.213 49.5022 318.888C49.5022 317.562 48.4209 316.482 47.0965 316.482C45.771 316.482 44.6897 317.563 44.6897 318.888C44.6897 320.212 45.771 321.294 47.0965 321.294Z" fill="white"/>
<path fill-rule="evenodd" clip-rule="evenodd" d="M70.1283 205.793C72.0214 205.793 73.5658 204.249 73.5658 202.356C73.5658 200.463 72.0214 198.918 70.1283 198.918C68.2352 198.918 66.6908 200.463 66.6908 202.356C66.6897 204.249 68.2341 205.793 70.1283 205.793Z" fill="white"/>
<path fill-rule="evenodd" clip-rule="evenodd" d="M50.534 494.543C53.7526 494.543 56.3772 491.918 56.3772 488.699C56.3772 485.481 53.7526 482.856 50.534 482.856C47.3154 482.856 44.6897 485.482 44.6897 488.699C44.6908 491.919 47.3154 494.543 50.534 494.543Z" fill="white"/>
<path fill-rule="evenodd" clip-rule="evenodd" d="M481.914 336.45C484.245 336.896 485.773 339.147 485.328 341.478C484.882 343.809 482.63 345.337 480.301 344.89C477.97 344.445 476.442 342.193 476.887 339.863C477.333 337.531 479.583 336.004 481.914 336.45Z" fill="white"/>
<path fill-rule="evenodd" clip-rule="evenodd" d="M495.864 329.544C496.905 329.544 497.754 328.695 497.754 327.654C497.754 326.612 496.905 325.763 495.864 325.763C494.822 325.763 493.973 326.612 493.973 327.654C493.974 328.694 494.823 329.544 495.864 329.544Z" fill="white"/>
<path fill-rule="evenodd" clip-rule="evenodd" d="M483.798 240.791C484.742 238.613 487.273 237.614 489.45 238.557C491.628 239.501 492.627 242.031 491.683 244.208C490.739 246.385 488.208 247.385 486.032 246.441C483.854 245.498 482.854 242.968 483.798 240.791Z" fill="white"/>
<path fill-rule="evenodd" clip-rule="evenodd" d="M480.103 225.671C480.331 224.654 479.687 223.64 478.671 223.413C477.654 223.185 476.64 223.829 476.413 224.845C476.185 225.862 476.829 226.876 477.845 227.103C478.861 227.329 479.876 226.686 480.103 225.671Z" fill="white"/>
<path d="M534.256 469.96C529.648 469.96 525.669 468.957 522.32 466.952C518.992 464.947 516.421 462.141 514.608 458.536C512.816 454.931 511.92 450.739 511.92 445.96C511.92 441.181 512.816 436.989 514.608 433.384C516.421 429.779 518.992 426.973 522.32 424.968C525.669 422.963 529.648 421.96 534.256 421.96C539.547 421.96 543.984 423.272 547.568 425.896C551.173 428.52 553.712 432.072 555.184 436.552L546.416 438.984C545.563 436.189 544.123 434.024 542.096 432.488C540.069 430.931 537.456 430.152 534.256 430.152C531.333 430.152 528.891 430.803 526.928 432.104C524.987 433.405 523.525 435.24 522.544 437.608C521.563 439.976 521.072 442.76 521.072 445.96C521.072 449.16 521.563 451.944 522.544 454.312C523.525 456.68 524.987 458.515 526.928 459.816C528.891 461.117 531.333 461.768 534.256 461.768C537.456 461.768 540.069 460.989 542.096 459.432C544.123 457.875 545.563 455.709 546.416 452.936L555.184 455.368C553.712 459.848 551.173 463.4 547.568 466.024C543.984 468.648 539.547 469.96 534.256 469.96ZM562.166 469V434.44H569.206L581.238 456.84L593.27 434.44H600.31V469H591.99V451.784L582.774 469H579.702L570.486 451.784V469H562.166ZM624.845 469.96C621.367 469.96 618.317 469.181 615.693 467.624C613.069 466.067 611.021 463.923 609.549 461.192C608.098 458.44 607.373 455.283 607.373 451.72C607.373 448.115 608.119 444.947 609.613 442.216C611.106 439.464 613.165 437.32 615.789 435.784C618.413 434.248 621.431 433.48 624.845 433.48C628.322 433.48 631.373 434.259 633.997 435.816C636.642 437.373 638.701 439.528 640.173 442.28C641.645 445.011 642.381 448.157 642.381 451.72C642.381 455.304 641.634 458.472 640.141 461.224C638.669 463.955 636.61 466.099 633.965 467.656C631.341 469.192 628.301 469.96 624.845 469.96ZM624.845 461.832C627.639 461.832 629.719 460.893 631.085 459.016C632.471 457.117 633.165 454.685 633.165 451.72C633.165 448.648 632.461 446.195 631.053 444.36C629.666 442.525 627.597 441.608 624.845 441.608C622.946 441.608 621.389 442.035 620.173 442.888C618.957 443.741 618.05 444.925 617.453 446.44C616.877 447.955 616.589 449.715 616.589 451.72C616.589 454.813 617.282 457.277 618.669 459.112C620.077 460.925 622.135 461.832 624.845 461.832ZM657.241 469V442.12H645.913V434.44H677.273V442.12H665.945V469H657.241ZM700.315 469.96C696.88 469.96 694.011 469.16 691.707 467.56C689.403 465.96 687.664 463.784 686.491 461.032C685.339 458.28 684.763 455.176 684.763 451.72C684.763 448.264 685.339 445.16 686.491 442.408C687.643 439.656 689.339 437.48 691.579 435.88C693.819 434.28 696.582 433.48 699.867 433.48C703.174 433.48 706.054 434.269 708.507 435.848C710.96 437.427 712.859 439.592 714.203 442.344C715.568 445.075 716.251 448.2 716.251 451.72C716.251 455.176 715.579 458.28 714.235 461.032C712.912 463.784 711.056 465.96 708.667 467.56C706.278 469.16 703.494 469.96 700.315 469.96ZM683.291 484.36V434.44H690.971V458.12H692.059V484.36H683.291ZM698.907 462.216C700.784 462.216 702.32 461.747 703.515 460.808C704.71 459.869 705.595 458.611 706.171 457.032C706.747 455.432 707.035 453.661 707.035 451.72C707.035 449.8 706.736 448.051 706.139 446.472C705.542 444.872 704.614 443.603 703.355 442.664C702.118 441.704 700.528 441.224 698.587 441.224C696.774 441.224 695.302 441.661 694.171 442.536C693.062 443.411 692.251 444.637 691.739 446.216C691.227 447.795 690.971 449.629 690.971 451.72C690.971 453.811 691.227 455.645 691.739 457.224C692.251 458.803 693.083 460.029 694.235 460.904C695.408 461.779 696.966 462.216 698.907 462.216ZM754.076 434.44V469H745.757V447.88L730.141 469H723.229V434.44H731.549V454.856L747.229 434.44H754.076ZM545.264 488.44V523H536.944V501.88L521.328 523H514.416V488.44H522.736V508.856L538.416 488.44H545.264ZM554.166 523V488.44H562.87V501.624H577.078V488.44H585.782V523H577.078V509.752H562.87V523H554.166ZM609.962 523.96C606.378 523.96 603.306 523.16 600.746 521.56C598.186 519.96 596.223 517.784 594.858 515.032C593.493 512.28 592.81 509.176 592.81 505.72C592.81 502.221 593.514 499.096 594.922 496.344C596.351 493.592 598.357 491.427 600.938 489.848C603.519 488.269 606.57 487.48 610.09 487.48C614.165 487.48 617.578 488.515 620.33 490.584C623.103 492.632 624.874 495.437 625.642 499L616.938 501.304C616.426 499.512 615.53 498.115 614.25 497.112C612.991 496.109 611.562 495.608 609.962 495.608C608.127 495.608 606.623 496.056 605.45 496.952C604.277 497.827 603.413 499.032 602.858 500.568C602.303 502.083 602.026 503.8 602.026 505.72C602.026 508.728 602.687 511.171 604.01 513.048C605.354 514.904 607.338 515.832 609.962 515.832C611.925 515.832 613.418 515.384 614.442 514.488C615.466 513.592 616.234 512.312 616.746 510.648L625.642 512.504C624.661 516.173 622.805 519 620.074 520.984C617.343 522.968 613.973 523.96 609.962 523.96ZM640.491 523V496.12H629.163V488.44H660.523V496.12H649.195V523H640.491ZM683.565 523.96C680.13 523.96 677.261 523.16 674.957 521.56C672.653 519.96 670.914 517.784 669.741 515.032C668.589 512.28 668.013 509.176 668.013 505.72C668.013 502.264 668.589 499.16 669.741 496.408C670.893 493.656 672.589 491.48 674.829 489.88C677.069 488.28 679.832 487.48 683.117 487.48C686.424 487.48 689.304 488.269 691.757 489.848C694.21 491.427 696.109 493.592 697.453 496.344C698.818 499.075 699.501 502.2 699.501 505.72C699.501 509.176 698.829 512.28 697.485 515.032C696.162 517.784 694.306 519.96 691.917 521.56C689.528 523.16 686.744 523.96 683.565 523.96ZM666.541 538.36V488.44H674.221V512.12H675.309V538.36H666.541ZM682.157 516.216C684.034 516.216 685.57 515.747 686.765 514.808C687.96 513.869 688.845 512.611 689.421 511.032C689.997 509.432 690.285 507.661 690.285 505.72C690.285 503.8 689.986 502.051 689.389 500.472C688.792 498.872 687.864 497.603 686.605 496.664C685.368 495.704 683.778 495.224 681.837 495.224C680.024 495.224 678.552 495.661 677.421 496.536C676.312 497.411 675.501 498.637 674.989 500.216C674.477 501.795 674.221 503.629 674.221 505.72C674.221 507.811 674.477 509.645 674.989 511.224C675.501 512.803 676.333 514.029 677.485 514.904C678.658 515.779 680.216 516.216 682.157 516.216ZM709.709 538.36L716.365 520.056L716.493 525.432L701.453 488.44H710.477L720.589 514.616H718.541L728.589 488.44H737.293L717.773 538.36H709.709ZM741.729 523L741.793 488.44H750.625V505.08L762.337 488.44H773.089L760.609 505.72L773.921 523H762.593L750.625 506.36V523H741.729ZM805.777 530.68V523H777.041V488.44H785.745V514.872H799.185V488.44H807.889V515.32H814.481V530.68H805.777ZM850.389 488.44V523H842.069V501.88L826.453 523H819.541V488.44H827.861V508.856L843.541 488.44H850.389ZM890.523 523.96C887.878 523.96 885.456 523.427 883.259 522.36C881.062 521.272 879.216 519.693 877.723 517.624C876.23 515.555 875.227 513.037 874.715 510.072H867.995V523H859.291V488.44H867.995V501.368H874.715C875.227 498.36 876.23 495.832 877.723 493.784C879.238 491.715 881.104 490.147 883.323 489.08C885.563 488.013 888.027 487.48 890.715 487.48C894.128 487.48 897.136 488.269 899.739 489.848C902.342 491.405 904.379 493.56 905.851 496.312C907.323 499.043 908.059 502.157 908.059 505.656C908.059 509.261 907.312 512.44 905.819 515.192C904.326 517.944 902.256 520.099 899.611 521.656C896.987 523.192 893.958 523.96 890.523 523.96ZM890.459 515.832C893.275 515.832 895.376 514.893 896.763 513.016C898.15 511.117 898.843 508.685 898.843 505.72C898.843 502.605 898.139 500.141 896.731 498.328C895.344 496.515 893.254 495.608 890.459 495.608C887.643 495.608 885.574 496.536 884.251 498.392C882.928 500.248 882.267 502.669 882.267 505.656C882.267 508.792 882.96 511.277 884.347 513.112C885.734 514.925 887.771 515.832 890.459 515.832Z" fill="#484848"/>
<path d="M647.312 97V71.08H659.096C659.944 71.08 660.736 71.128 661.472 71.224C662.208 71.32 662.84 71.44 663.368 71.584C664.616 71.952 665.72 72.672 666.68 73.744C667.64 74.8 668.12 76.264 668.12 78.136C668.12 79.24 667.944 80.152 667.592 80.872C667.24 81.576 666.776 82.168 666.2 82.648C665.928 82.872 665.648 83.064 665.36 83.224C665.072 83.384 664.784 83.512 664.496 83.608C665.12 83.704 665.712 83.888 666.272 84.16C667.152 84.592 667.888 85.232 668.48 86.08C669.088 86.928 669.392 88.12 669.392 89.656C669.392 91.4 668.968 92.872 668.12 94.072C667.288 95.256 666.064 96.08 664.448 96.544C663.856 96.704 663.176 96.824 662.408 96.904C661.64 96.968 660.856 97 660.056 97H647.312ZM653.168 92.536H659.648C659.984 92.536 660.352 92.504 660.752 92.44C661.152 92.376 661.512 92.288 661.832 92.176C662.408 91.968 662.824 91.6 663.08 91.072C663.352 90.544 663.488 89.992 663.488 89.416C663.488 88.632 663.288 88.008 662.888 87.544C662.504 87.064 662.04 86.744 661.496 86.584C661.176 86.456 660.824 86.384 660.44 86.368C660.072 86.336 659.768 86.32 659.528 86.32H653.168V92.536ZM653.168 81.784H657.968C658.464 81.784 658.944 81.76 659.408 81.712C659.888 81.648 660.288 81.544 660.608 81.4C661.136 81.192 661.52 80.84 661.76 80.344C662.016 79.848 662.144 79.296 662.144 78.688C662.144 78.048 662 77.472 661.712 76.96C661.44 76.432 661 76.08 660.392 75.904C659.992 75.744 659.504 75.656 658.928 75.64C658.368 75.624 658.008 75.616 657.848 75.616H653.168V81.784ZM674.125 97V71.08H685.909C686.757 71.08 687.549 71.128 688.285 71.224C689.021 71.32 689.653 71.44 690.181 71.584C691.429 71.952 692.533 72.672 693.493 73.744C694.453 74.8 694.932 76.264 694.932 78.136C694.932 79.24 694.757 80.152 694.405 80.872C694.053 81.576 693.589 82.168 693.013 82.648C692.741 82.872 692.461 83.064 692.173 83.224C691.885 83.384 691.597 83.512 691.309 83.608C691.933 83.704 692.525 83.888 693.085 84.16C693.965 84.592 694.701 85.232 695.293 86.08C695.901 86.928 696.205 88.12 696.205 89.656C696.205 91.4 695.781 92.872 694.932 94.072C694.101 95.256 692.877 96.08 691.261 96.544C690.669 96.704 689.989 96.824 689.221 96.904C688.453 96.968 687.669 97 686.869 97H674.125ZM679.981 92.536H686.461C686.797 92.536 687.165 92.504 687.565 92.44C687.965 92.376 688.325 92.288 688.645 92.176C689.221 91.968 689.637 91.6 689.893 91.072C690.165 90.544 690.301 89.992 690.301 89.416C690.301 88.632 690.101 88.008 689.701 87.544C689.317 87.064 688.853 86.744 688.309 86.584C687.989 86.456 687.637 86.384 687.253 86.368C686.885 86.336 686.581 86.32 686.341 86.32H679.981V92.536ZM679.981 81.784H684.781C685.277 81.784 685.757 81.76 686.221 81.712C686.701 81.648 687.101 81.544 687.421 81.4C687.949 81.192 688.333 80.84 688.573 80.344C688.829 79.848 688.957 79.296 688.957 78.688C688.957 78.048 688.813 77.472 688.525 76.96C688.253 76.432 687.813 76.08 687.205 75.904C686.805 75.744 686.317 75.656 685.741 75.64C685.181 75.624 684.821 75.616 684.661 75.616H679.981V81.784ZM712.433 97.72C709.841 97.72 707.577 97.136 705.641 95.968C703.705 94.8 702.201 93.192 701.129 91.144C700.073 89.08 699.545 86.712 699.545 84.04C699.545 81.32 700.089 78.936 701.177 76.888C702.265 74.84 703.777 73.24 705.713 72.088C707.649 70.936 709.889 70.36 712.433 70.36C715.041 70.36 717.313 70.944 719.249 72.112C721.185 73.28 722.689 74.896 723.761 76.96C724.833 79.008 725.369 81.368 725.369 84.04C725.369 86.728 724.825 89.104 723.737 91.168C722.665 93.216 721.161 94.824 719.225 95.992C717.289 97.144 715.025 97.72 712.433 97.72ZM712.433 92.296C714.737 92.296 716.449 91.528 717.569 89.992C718.689 88.456 719.249 86.472 719.249 84.04C719.249 81.528 718.681 79.528 717.545 78.04C716.409 76.536 714.705 75.784 712.433 75.784C710.881 75.784 709.601 76.136 708.593 76.84C707.601 77.528 706.865 78.496 706.385 79.744C705.905 80.976 705.665 82.408 705.665 84.04C705.665 86.552 706.233 88.56 707.369 90.064C708.521 91.552 710.209 92.296 712.433 92.296ZM728.737 102.76V92.464C730.145 92.464 731.145 91.984 731.737 91.024C732.329 90.064 732.801 88.4 733.153 86.032C733.377 84.624 733.561 83.136 733.705 81.568C733.849 80 733.969 78.344 734.065 76.6C734.177 74.856 734.273 73.016 734.353 71.08H753.649V92.464H756.265V102.76H750.793V97H734.185V102.76H728.737ZM736.489 92.464H747.889V75.616H739.417C739.369 76.576 739.313 77.56 739.249 78.568C739.185 79.56 739.113 80.552 739.033 81.544C738.953 82.536 738.865 83.488 738.769 84.4C738.689 85.296 738.593 86.128 738.481 86.896C738.305 88.24 738.089 89.344 737.833 90.208C737.577 91.072 737.129 91.824 736.489 92.464ZM783.543 71.08V97H777.999V80.08L765.663 97H761.031V71.08H766.575V87.568L778.959 71.08H783.543ZM647.36 131V105.08H665.84V110.504H653.144V131H647.36ZM682.879 131.72C680.351 131.72 678.231 131.12 676.519 129.92C674.807 128.72 673.519 127.088 672.655 125.024C671.791 122.944 671.359 120.616 671.359 118.04C671.359 115.432 671.791 113.096 672.655 111.032C673.519 108.968 674.783 107.344 676.447 106.16C678.127 104.96 680.199 104.36 682.663 104.36C685.111 104.36 687.231 104.96 689.023 106.16C690.831 107.344 692.231 108.968 693.223 111.032C694.215 113.08 694.711 115.416 694.711 118.04C694.711 120.632 694.223 122.96 693.247 125.024C692.271 127.088 690.895 128.72 689.119 129.92C687.343 131.12 685.263 131.72 682.879 131.72ZM670.375 142.52V105.08H675.487V123.272H676.207V142.52H670.375ZM681.991 126.536C683.495 126.536 684.735 126.16 685.711 125.408C686.687 124.656 687.407 123.64 687.871 122.36C688.351 121.064 688.591 119.624 688.591 118.04C688.591 116.472 688.351 115.048 687.871 113.768C687.391 112.472 686.647 111.448 685.639 110.696C684.631 109.928 683.351 109.544 681.799 109.544C680.327 109.544 679.127 109.904 678.199 110.624C677.271 111.328 676.583 112.32 676.135 113.6C675.703 114.864 675.487 116.344 675.487 118.04C675.487 119.72 675.703 121.2 676.135 122.48C676.583 123.76 677.279 124.76 678.223 125.48C679.183 126.184 680.439 126.536 681.991 126.536ZM702.471 142.52L707.463 128.816L707.559 132.848L696.255 105.08H702.279L710.295 125.624H708.759L716.559 105.08H722.343L707.895 142.52H702.471ZM725.875 131V105.08H748.387V131H742.603V110.504H731.659V131H725.875ZM755.078 131V105.08H777.59V131H771.806V110.504H760.862V131H755.078ZM787.737 142.52L792.729 128.816L792.825 132.848L781.521 105.08H787.545L795.561 125.624H794.025L801.825 105.08H807.609L793.161 142.52H787.737Z" fill="#484848"/>
<g filter="url(#filter1_d_124_103)">
<path d="M796.081 448.044C795.001 448.276 794.313 449.339 794.544 450.419C794.776 451.499 795.839 452.187 796.919 451.955L796.081 448.044ZM505.5 70.9999L504.501 69.2675L504.501 69.2675L505.5 70.9999ZM630.414 104.914C631.195 104.133 631.195 102.866 630.414 102.085L617.686 89.3575C616.905 88.5765 615.639 88.5765 614.858 89.3575C614.077 90.1386 614.077 91.4049 614.858 92.1859L626.171 103.5L614.858 114.813C614.077 115.594 614.077 116.861 614.858 117.642C615.639 118.423 616.905 118.423 617.686 117.642L630.414 104.914ZM651.5 237L651.056 235.05L651.5 237ZM796.919 451.955C825.872 445.751 869.685 410.911 869.685 339.798H865.685C865.685 409.089 823.128 442.248 796.081 448.044L796.919 451.955ZM485.336 183.208C460.719 126.096 488.183 83.2993 506.499 72.7323L504.501 69.2675C484.346 80.8953 456.28 125.903 481.663 184.791L485.336 183.208ZM481.663 184.791C494.413 214.371 516.645 232.627 545.934 241.09C575.131 249.527 611.256 248.215 651.944 238.95L651.056 235.05C610.714 244.236 575.339 245.423 547.044 237.247C518.84 229.098 497.587 211.629 485.336 183.208L481.663 184.791ZM651.944 238.95C733.973 220.271 787.384 230.997 820.221 253.443C853.047 275.882 865.685 310.284 865.685 339.798H869.685C869.685 309.195 856.573 273.447 822.478 250.141C788.394 226.843 733.712 216.228 651.056 235.05L651.944 238.95ZM506.499 72.7323C532.99 57.4494 560.473 68.3635 573.995 83.8167L577.005 81.1826C562.527 64.6362 533.011 52.8192 504.501 69.2675L506.499 72.7323ZM573.995 83.8167C581.175 92.0225 588.687 97.4853 597.603 100.869C606.483 104.24 616.629 105.5 629 105.5V101.5C616.87 101.5 607.266 100.259 599.022 97.1297C590.813 94.0138 583.825 88.9765 577.005 81.1826L573.995 83.8167Z" fill="url(#paint0_linear_124_103)"/>
</g>
<defs>
<filter id="filter0_i_124_103" x="0" y="0" width="962" height="610" filterUnits="userSpaceOnUse" color-interpolation-filters="sRGB">
<feFlood flood-opacity="0" result="BackgroundImageFix"/>
<feBlend mode="normal" in="SourceGraphic" in2="BackgroundImageFix" result="shape"/>
<feColorMatrix in="SourceAlpha" type="matrix" values="0 0 0 0 0 0 0 0 0 0 0 0 0 0 0 0 0 0 127 0" result="hardAlpha"/>
<feMorphology radius="6" operator="erode" in="SourceAlpha" result="effect1_innerShadow_124_103"/>
<feOffset/>
<feGaussianBlur stdDeviation="6.5"/>
<feComposite in2="hardAlpha" operator="arithmetic" k2="-1" k3="1"/>
<feColorMatrix type="matrix" values="0 0 0 0 0 0 0 0 0 0 0 0 0 0 0 0 0 0 0.25 0"/>
<feBlend mode="normal" in2="shape" result="effect1_innerShadow_124_103"/>
</filter>
<filter id="filter1_d_124_103" x="467.564" y="61.3677" width="406.121" height="398.632" filterUnits="userSpaceOnUse" color-interpolation-filters="sRGB">
<feFlood flood-opacity="0" result="BackgroundImageFix"/>
<feColorMatrix in="SourceAlpha" type="matrix" values="0 0 0 0 0 0 0 0 0 0 0 0 0 0 0 0 0 0 127 0" result="hardAlpha"/>
<feOffset dy="4"/>
<feGaussianBlur stdDeviation="2"/>
<feComposite in2="hardAlpha" operator="out"/>
<feColorMatrix type="matrix" values="0 0 0 0 0.375 0 0 0 0 0.375 0 0 0 0 0.375 0 0 0 0.2 0"/>
<feBlend mode="normal" in2="BackgroundImageFix" result="effect1_dropShadow_124_103"/>
<feBlend mode="normal" in="SourceGraphic" in2="effect1_dropShadow_124_103" result="shape"/>
</filter>
<linearGradient id="paint0_linear_124_103" x1="514.5" y1="50.4998" x2="888" y2="422" gradientUnits="userSpaceOnUse">
<stop stop-color="#ECB55A"/>
<stop offset="0.0001" stop-color="#F79A00"/>
<stop offset="0.653174" stop-color="#F3D199"/>
<stop offset="1" stop-color="#FFFFFE"/>
</linearGradient>
</defs>
</svg>
